<svg width="178" height="44" viewBox="0 0 178 44" fill="none" xmlns="http://www.w3.org/2000/svg">
<path d="M111.212 12.4104C111.212 15.1297 111.212 17.7291 111.212 20.2327C112.279 20.089 113.299 19.8134 114.308 19.8494C118.32 19.9452 121.264 23.0358 121.369 27.2644C121.44 30.0315 121.381 32.8107 121.381 35.5898C121.381 35.6856 121.358 35.7815 121.346 35.9132C119.95 35.9132 118.566 35.9132 117.1 35.9132C117.1 35.7096 117.1 35.494 117.1 35.2903C117.1 32.6549 117.112 30.0196 117.1 27.3842C117.088 25.5873 115.915 24.2936 114.249 24.1978C112.607 24.1019 111.188 25.4316 111.188 27.1087C111.176 29.8039 111.188 32.4992 111.188 35.1945C111.188 35.4341 111.188 35.6617 111.188 35.9252C109.734 35.9252 108.361 35.9252 106.907 35.9252C106.907 35.6856 106.907 35.482 106.907 35.2664C106.907 28.3425 106.907 21.4186 106.895 14.4948C106.895 14.0396 107.001 13.8239 107.435 13.6922C108.654 13.2969 109.874 12.8656 111.212 12.4104Z" fill="black"/>
<path d="M90.1451 29.9477C86.4385 29.9477 82.7203 29.9477 78.9785 29.9477C79.8465 32.068 82.8845 32.3914 85.031 30.6305C86.0163 31.5648 87.0016 32.5112 87.9986 33.4575C86.157 35.7335 81.688 37.207 78.0284 34.883C74.5682 32.6789 73.1489 28.2826 74.7793 24.5571C76.4566 20.7358 80.6089 18.7114 84.4328 19.9452C88.5499 21.2868 90.7081 24.9404 90.1451 29.9477ZM78.8964 25.6951C81.125 25.6951 83.2598 25.6951 85.4533 25.6951C84.5501 24.4014 83.4006 23.7545 81.9226 23.8504C80.6558 23.9222 79.6354 24.5212 78.8964 25.6951Z" fill="black"/>
<path d="M178 27.8514C177.988 32.4753 174.317 36.2007 169.813 36.1648C165.32 36.1288 161.684 32.3794 161.708 27.8274C161.731 23.2394 165.367 19.5259 169.848 19.5259C174.376 19.502 178.012 23.2275 178 27.8514ZM169.813 31.7565C171.971 31.7685 173.695 30.0555 173.742 27.8633C173.789 25.743 171.983 23.8983 169.871 23.8983C167.76 23.8983 166.036 25.6592 166.024 27.8034C166.012 29.9836 167.701 31.7445 169.813 31.7565Z" fill="black"/>
<path d="M66.029 17.5255C63.9412 17.5255 61.9823 17.5255 60 17.5255C60 16.052 60 14.6505 60 13.213C65.5364 13.213 71.0376 13.213 76.5974 13.213C76.5974 14.6385 76.5974 16.052 76.5974 17.5255C74.6034 17.5255 72.6093 17.5255 70.5449 17.5255C70.5449 23.6587 70.5449 29.756 70.5449 35.9013C69.0201 35.9013 67.5656 35.9013 66.029 35.9013C66.029 29.8159 66.029 23.7186 66.029 17.5255Z" fill="black"/>
<path d="M128.184 35.9252C126.73 35.9252 125.357 35.9252 123.938 35.9252C123.938 30.4867 123.938 25.0483 123.938 19.5619C125.311 19.5619 126.706 19.5619 128.149 19.5619C128.173 19.8614 128.184 20.1728 128.219 20.5442C128.618 20.4244 128.982 20.3166 129.346 20.2207C133.439 19.0827 137.932 22.1853 138.19 26.5097C138.377 29.5763 138.26 32.6549 138.272 35.7216C138.272 35.7815 138.237 35.8294 138.213 35.9132C136.829 35.9132 135.457 35.9132 134.002 35.9132C134.002 35.6856 134.002 35.47 134.002 35.2664C134.002 32.6669 134.014 30.0795 134.002 27.48C133.979 25.1441 131.903 23.7306 129.862 24.653C128.782 25.1441 128.208 26.0186 128.208 27.2404C128.208 29.8758 128.208 32.5112 128.208 35.1466C128.184 35.3862 128.184 35.6257 128.184 35.9252Z" fill="black"/>
<path d="M102.086 30.1034C103.247 30.918 104.385 31.7206 105.523 32.5112C104.279 34.7872 101.124 36.596 97.7576 36.1049C93.8751 35.5419 91.107 32.4633 90.7551 28.4743C90.4266 24.7847 92.7256 21.2389 96.2445 19.9811C99.5992 18.7832 103.564 20.077 105.523 23.0837C104.373 23.8983 103.235 24.7248 102.062 25.5634C101.171 24.4853 100.092 23.8504 98.696 23.9342C97.6286 23.9941 96.7372 24.4134 96.0217 25.228C94.6493 26.7613 94.7431 29.2769 96.2093 30.6904C97.5231 31.9841 100.127 32.5232 102.086 30.1034Z" fill="black"/>
<path d="M162.634 19.6937C161.062 23.6348 159.538 27.4561 158.024 31.2654C157.461 32.6669 156.898 34.0685 156.359 35.47C156.23 35.8174 156.054 35.9612 155.679 35.9492C154.775 35.9252 153.884 35.9612 152.981 35.9252C152.793 35.9133 152.523 35.7695 152.465 35.6138C150.377 30.4029 148.301 25.1801 146.236 19.9452C146.213 19.8973 146.224 19.8374 146.213 19.6817C146.529 19.6817 146.834 19.6817 147.139 19.6817C148.195 19.6817 149.251 19.7057 150.306 19.6697C150.717 19.6577 150.881 19.8015 151.022 20.1848C152.066 22.9999 153.133 25.803 154.189 28.6061C154.236 28.7378 154.294 28.8696 154.388 29.0972C154.506 28.8337 154.588 28.654 154.658 28.4623C155.679 25.791 156.711 23.1197 157.696 20.4364C157.919 19.8254 158.212 19.6338 158.834 19.6697C160.042 19.7296 161.297 19.6937 162.634 19.6937Z" fill="black"/>
<path d="M140.911 35.9132C140.911 35.1945 140.911 34.5357 140.911 33.8888C140.911 29.6602 140.923 25.4316 140.899 21.215C140.899 20.6999 141.063 20.4963 141.533 20.3525C142.741 19.9812 143.937 19.5619 145.192 19.1426C145.192 24.7608 145.192 30.319 145.192 35.9132C143.773 35.9132 142.377 35.9132 140.911 35.9132Z" fill="black"/>
<path d="M22.6991 10.0084H48.7896C51.0052 10.0084 52.5426 12.2329 51.8191 14.3647L49.4678 27.5265C49.0157 28.8705 47.7948 29.7511 46.4383 29.7511H23.8748C22.1565 29.7511 20.8 28.2217 20.9809 26.4606L22.6991 10.0084Z" fill="#0070DC"/>
<path d="M48.1565 31.3731C47.5235 33.4586 45.6696 34.8953 43.5444 34.8953H22.0661C20.0765 34.8953 18.2226 34.0148 16.8661 32.5317C15.5548 31.0487 14.8765 29.0096 15.1026 27.0168L16.8209 9.26687C17.0017 7.4131 15.7357 5.65201 13.927 5.3276L8.54609 4.30803C7.59653 4.12265 7.0087 3.19576 7.14435 2.26888C7.32522 1.29564 8.22957 0.693167 9.13392 0.8322L14.5148 1.85178C18.087 2.5006 20.5739 5.93008 20.2122 9.63763L18.4939 27.2485C18.4035 28.2681 18.6296 29.2876 19.2626 30.0292C19.9409 30.8633 20.9357 31.3731 22.0209 31.3731H48.1565Z" fill="black"/>
<path d="M21.6591 43.2373C23.582 43.2373 25.1409 41.6396 25.1409 39.6688C25.1409 37.6979 23.582 36.1003 21.6591 36.1003C19.7362 36.1003 18.1774 37.6979 18.1774 39.6688C18.1774 41.6396 19.7362 43.2373 21.6591 43.2373Z" fill="black"/>
<path d="M38.073 43.2373C39.996 43.2373 41.5548 41.6396 41.5548 39.6688C41.5548 37.6979 39.996 36.1003 38.073 36.1003C36.1501 36.1003 34.5913 37.6979 34.5913 39.6688C34.5913 41.6396 36.1501 43.2373 38.073 43.2373Z" fill="black"/>
<path d="M29.6626 12.6037L29.1652 17.7479C28.8487 20.7603 30.8383 23.1238 33.7322 23.2629L36.7617 23.4019C36.807 23.4019 36.807 23.4019 36.8522 23.4019C39.7461 23.4946 42.5948 21.2701 43.4087 18.304L44.7652 13.1135C44.9009 12.65 44.6296 12.2329 44.1774 12.1866C44.1322 12.1866 44.1322 12.1866 44.087 12.1866C43.68 12.1866 43.2278 12.511 43.1374 12.9281L41.7809 18.1187C41.2383 20.2041 39.2487 21.7799 37.1687 21.7335H37.1235L34.0939 21.5945C32.0591 21.5018 30.6574 19.8334 30.8835 17.7016L31.3809 12.5573C31.4261 12.0939 31.1096 11.7695 30.7026 11.7231C30.6574 11.7231 30.6574 11.7231 30.6122 11.7231C30.1148 11.7231 29.7078 12.1402 29.6626 12.6037Z" fill="white"/>
<path d="M12.2539 20.4359L8.68174 20.4822L8.63652 16.821C8.63652 15.477 9.67652 14.3647 10.9878 14.3647L14.56 14.3184L14.6052 17.9796C14.6504 19.3236 13.5652 20.3895 12.2539 20.4359Z" fill="#0070DC"/>
<path d="M8.22957 29.8438L4.43131 29.8901L4.38609 25.9972C4.38609 24.5605 5.51653 23.4019 6.91827 23.4019L10.7165 23.3556L10.7617 27.2485C10.7617 28.6852 9.63131 29.8438 8.22957 29.8438Z" fill="#0070DC"/>
<path d="M2.57739 23.8653H0.0452174L0 21.2701C0 20.2968 0.768696 19.509 1.67304 19.509H4.20522V22.1043C4.25043 23.0775 3.48174 23.8653 2.57739 23.8653Z" fill="#0070DC"/>
</svg>
