<svg width="41" height="41" viewBox="0 0 41 41" fill="none" xmlns="http://www.w3.org/2000/svg">
<path d="M31.2992 4.16427C31.3089 4.18439 31.3192 4.20502 31.3299 4.22613C31.4928 4.5466 31.7684 4.97381 32.2154 5.38652L31.2992 4.16427ZM31.2992 4.16427C31.3014 4.16332 31.3036 4.16237 31.3057 4.16142C31.4679 4.09093 31.6369 4.00457 31.7881 3.92731C31.8107 3.91575 31.8329 3.9044 31.8547 3.89334C32.0318 3.80315 32.1801 3.73037 32.3072 3.68294C32.4113 3.64411 32.4612 3.63818 32.4736 3.63671C32.4829 3.63997 32.5042 3.64795 32.5394 3.66527C32.5966 3.69337 32.6691 3.73543 32.755 3.79158C32.9265 3.90374 33.1251 4.05494 33.3197 4.21674C33.5135 4.37793 33.695 4.54274 33.8318 4.6785C33.8709 4.71723 33.905 4.75231 33.9339 4.78322C33.8807 4.90069 33.7966 5.05258 33.6946 5.22595C33.6432 5.31344 33.5896 5.40227 33.536 5.49124L33.5302 5.50081C33.479 5.58568 33.4275 5.67108 33.3802 5.75143C33.3214 5.85136 33.2565 5.96407 33.2047 6.07026C33.016 6.0094 32.6842 5.81874 32.2156 5.38671L31.2992 4.16427ZM33.9779 4.66922C33.9777 4.67009 33.9774 4.67113 33.9771 4.67234C33.9786 4.6613 33.9801 4.65937 33.9779 4.66922Z" fill="#77B255" stroke="black"/>
<path d="M14.7423 3.79968L14.7424 3.79966C17.262 2.28699 20.4059 1.5354 23.2643 1.45911C26.1491 1.38211 28.6152 1.99441 29.8602 3.06715L29.8602 3.06717C31.711 4.66155 33.2877 5.94222 35.1308 6.69499L35.131 6.69508C36.183 7.12416 37.1761 7.98189 38.0148 9.07535C38.8509 10.1654 39.5108 11.4606 39.9087 12.7194L39.9087 12.7195C40.9934 16.1482 41.7859 27.1138 30.9076 33.9373L30.9076 33.9373C27.4053 36.1345 22.408 37.6975 18.0719 38.616C15.9094 39.074 13.9276 39.3683 12.4001 39.5016C11.6354 39.5683 10.9929 39.5939 10.5026 39.5811C10.2573 39.5748 10.058 39.5589 9.90472 39.536C9.74328 39.5119 9.66618 39.4845 9.64315 39.473C9.59456 39.4485 9.54054 39.4217 9.48145 39.3923C8.17515 38.7437 4.39419 36.8664 2.21412 32.1162C-0.0462477 27.1911 -0.650787 13.0391 14.7423 3.79968Z" fill="#78AB0D" stroke="black"/>
<path d="M20.2534 2.74474C26.2759 1.00052 30.7758 5.25868 27.9969 5.56115C22.9956 6.10607 17.6535 11.4093 13.5116 15.418C5.91035 22.7738 4.18932 31.6009 3.18538 30.1297C1.55155 27.7358 1.50107 19.3631 7.27112 12.0214C13.0412 4.67963 17.7166 3.48033 20.2534 2.74474Z" fill="#78AB0D"/>
<path d="M33.795 5.80793C34.6025 6.40229 35.4509 7.32674 36.181 8.45427C37.26 10.1206 38.0061 12.1173 37.9831 13.898L37.9831 13.8981C37.9187 18.9136 36.7526 22.3654 35.6197 24.5512C35.0526 25.6453 34.4922 26.4254 34.0786 26.9276C34.0522 26.9597 34.0263 26.9907 34.0011 27.0206C33.937 26.7671 33.8613 26.4646 33.7773 26.122C33.5107 25.0344 33.1598 23.5436 32.8227 21.9293C32.4854 20.314 32.163 18.5806 31.9522 17.0066C31.7398 15.4216 31.6464 14.0377 31.7484 13.1032L33.795 5.80793ZM33.795 5.80793C33.9422 6.35614 34.0364 7.039 33.9138 7.75559L33.795 5.80793ZM32.7783 10.1443C32.333 10.881 31.8972 11.742 31.7484 13.1031L32.7783 10.1443ZM32.7783 10.1443C32.8496 10.0263 32.9238 9.90804 32.9989 9.78852M32.7783 10.1443L32.9989 9.78852M32.9989 9.78852C33.379 9.18314 33.7792 8.54587 33.9138 7.75573L32.9989 9.78852Z" fill="#77B255" stroke="black"/>
</svg>
