<svg width="70" height="53" viewBox="0 0 70 53" fill="none" xmlns="http://www.w3.org/2000/svg">
<path d="M15.9099 21.1363C15.1318 21.1363 14.385 21.2566 13.6417 21.3664C13.8825 20.545 14.1302 19.7095 14.5281 18.9589C14.9259 17.8685 15.547 16.9232 16.1647 15.9708C16.6811 14.9405 17.5919 14.2431 18.2619 13.3615C18.9634 12.5047 19.9195 11.9347 20.6768 11.2231C21.42 10.4796 22.3936 10.1079 23.1683 9.5839C23.9779 9.11302 24.6828 8.59258 25.4366 8.34476L27.3175 7.55878L28.9716 6.86132L27.2791 0L25.1958 0.509818C24.5293 0.679758 23.7162 0.878021 22.7915 1.11523C21.8458 1.29225 20.8373 1.77729 19.7136 2.21984C18.6039 2.72258 17.3197 3.06246 16.1263 3.86967C14.9259 4.64148 13.5405 5.28584 12.3191 6.31964C11.1361 7.3853 9.7089 8.30935 8.65503 9.66533C7.50346 10.9328 6.36585 12.264 5.48298 13.7793C4.46052 15.2238 3.76609 16.8099 3.03327 18.3783C2.37024 19.9467 1.83633 21.5505 1.40013 23.1083C0.57309 26.2309 0.203191 29.1978 0.0601165 31.7363C-0.0585304 34.2783 0.0112619 36.3919 0.157826 37.9214C0.21017 38.6436 0.307879 39.3446 0.377672 39.8297L0.464911 40.4244L0.555641 40.4032C1.17631 43.3447 2.6051 46.0478 4.67675 48.1998C6.74839 50.3519 9.37823 51.8649 12.262 52.5639C15.1458 53.2629 18.1658 53.1193 20.9725 52.1497C23.7792 51.1801 26.2581 49.4242 28.1222 47.085C29.9864 44.7458 31.1597 41.9189 31.5065 38.9314C31.8532 35.944 31.3593 32.9179 30.0817 30.2033C28.8042 27.4888 26.7952 25.1966 24.2873 23.5921C21.7794 21.9875 18.8749 21.1361 15.9099 21.1363ZM54.2957 21.1363C53.5175 21.1363 52.7707 21.2566 52.0274 21.3664C52.2682 20.545 52.516 19.7095 52.9138 18.9589C53.3116 17.8685 53.9328 16.9232 54.5504 15.9708C55.0669 14.9405 55.9777 14.2431 56.6477 13.3615C57.3491 12.5047 58.3052 11.9347 59.0625 11.2231C59.8058 10.4796 60.7794 10.1079 61.5541 9.5839C62.3637 9.11302 63.0686 8.59258 63.8223 8.34476L65.7032 7.55878L67.3573 6.86132L65.6648 0L63.5815 0.509818C62.915 0.679758 62.1019 0.878021 61.1772 1.11523C60.2315 1.29225 59.223 1.77729 58.0994 2.21984C56.9932 2.72612 55.7055 3.06246 54.512 3.87321C53.3116 4.64502 51.9262 5.28938 50.7049 6.32318C49.5219 7.38884 48.0946 8.31289 47.0408 9.66533C45.8892 10.9328 44.7516 12.264 43.8687 13.7793C42.8463 15.2238 42.1518 16.8099 41.419 18.3783C40.756 19.9467 40.2221 21.5505 39.7859 23.1083C38.9588 26.2309 38.5889 29.1978 38.4459 31.7363C38.3272 34.2783 38.397 36.3919 38.5436 37.9214C38.5959 38.6436 38.6936 39.3446 38.7634 39.8297L38.8507 40.4244L38.9414 40.4032C39.5621 43.3447 40.9908 46.0478 43.0625 48.1998C45.1341 50.3519 47.764 51.8649 50.6478 52.5639C53.5316 53.2629 56.5515 53.1193 59.3583 52.1497C62.165 51.1801 64.6438 49.4242 66.508 47.085C68.3721 44.7458 69.5455 41.9189 69.8922 38.9314C70.239 35.944 69.745 32.9179 68.4675 30.2033C67.1899 27.4888 65.181 25.1966 62.673 23.5921C60.1651 21.9875 57.2607 21.1361 54.2957 21.1363Z" fill="#0070DC"/>
</svg>
