<svg width="19" height="20" viewBox="0 0 19 20" fill="none" xmlns="http://www.w3.org/2000/svg">
<path d="M4.63246 5.8186H14.2675C15.4719 5.8186 16.4756 7.02327 16.6763 8.22794L17.8807 15.4559C18.0815 16.6612 16.6763 17.8653 15.4719 17.8653H3.42807C2.22369 17.8653 0.818466 16.6612 1.0193 15.4559L2.22369 8.22794C2.42442 7.02327 3.42807 5.8186 4.63246 5.8186Z" stroke="#000" stroke-width="1.2" stroke-linecap="round" stroke-linejoin="round"/>
<path d="M5.83594 8.2281V4.6001" stroke="#000" stroke-width="1.2" stroke-linecap="round" stroke-linejoin="round"/>
<path d="M13.0625 4.61401V8.22801" stroke="#000" stroke-width="1.2" stroke-linecap="round" stroke-linejoin="round"/>
<path d="M1.25098 14.2H17.6472" stroke="#000" stroke-width="1.2" stroke-linecap="round" stroke-linejoin="round"/>
<path d="M13.0632 4.614C13.0632 3.40933 12.3632 2.12539 11.2497 1.48231C10.1361 0.83923 8.76407 0.839231 7.65049 1.48231C6.53691 2.12539 5.83691 3.40933 5.83691 4.614" stroke="#000" stroke-width="1.2" stroke-linecap="round" stroke-linejoin="round"/>
</svg>
