<svg width="16" height="16" viewBox="0 0 16 16" fill="none" xmlns="http://www.w3.org/2000/svg">
<path d="M15.5789 4.20537H7.33221L9.98189 6.85504C10.0221 6.89388 10.0542 6.94034 10.0762 6.99171C10.0983 7.04308 10.1099 7.09833 10.1104 7.15424C10.1109 7.21014 10.1002 7.26559 10.0791 7.31733C10.0579 7.36908 10.0266 7.41609 9.98711 7.45562C9.94757 7.49516 9.90056 7.52642 9.84881 7.54759C9.79707 7.56876 9.74162 7.57942 9.68572 7.57893C9.62981 7.57845 9.57456 7.56683 9.52319 7.54476C9.47182 7.5227 9.42536 7.49062 9.38652 7.4504L6.0181 4.08198C5.979 4.0429 5.94798 3.99649 5.92681 3.94541C5.90565 3.89433 5.89476 3.83959 5.89476 3.7843C5.89476 3.72901 5.90565 3.67427 5.92681 3.62319C5.94798 3.57211 5.979 3.5257 6.0181 3.48662L9.38652 0.118194C9.46593 0.0414963 9.57229 -0.000943418 9.68269 1.59169e-05C9.79309 0.000975251 9.89869 0.0452568 9.97676 0.123323C10.0548 0.20139 10.0991 0.306995 10.1001 0.417394C10.101 0.527792 10.0586 0.634151 9.98189 0.713563L7.33221 3.36326H15.5789C15.6906 3.36326 15.7977 3.40762 15.8767 3.48659C15.9556 3.56555 16 3.67265 16 3.78432C16 3.89599 15.9556 4.00308 15.8767 4.08205C15.7977 4.16101 15.6906 4.20537 15.5789 4.20537V4.20537ZM6.01809 15.8715C6.05718 15.9106 6.10358 15.9416 6.15466 15.9628C6.20574 15.9839 6.26048 15.9948 6.31577 15.9948C6.37106 15.9948 6.42581 15.9839 6.47688 15.9628C6.52796 15.9416 6.57437 15.9106 6.61346 15.8715L9.98188 12.5031C10.021 12.464 10.052 12.4176 10.0732 12.3665C10.0943 12.3154 10.1052 12.2607 10.1052 12.2054C10.1052 12.1501 10.0943 12.0954 10.0732 12.0443C10.052 11.9932 10.021 11.9468 9.98188 11.9077L6.61346 8.53928C6.53405 8.46258 6.42769 8.42014 6.31729 8.4211C6.20689 8.42206 6.10128 8.46634 6.02322 8.54441C5.94515 8.62248 5.90087 8.72808 5.89991 8.83848C5.89895 8.94888 5.94139 9.05524 6.01809 9.13465L8.66779 11.7843H0.421053C0.309383 11.7843 0.202286 11.8287 0.123324 11.9076C0.0443609 11.9866 0 12.0937 0 12.2054C0 12.317 0.0443609 12.4241 0.123324 12.5031C0.202286 12.5821 0.309383 12.6264 0.421053 12.6264H8.66779L6.01809 15.2761C5.97898 15.3152 5.94796 15.3616 5.92679 15.4127C5.90563 15.4637 5.89473 15.5185 5.89473 15.5738C5.89473 15.6291 5.90563 15.6838 5.92679 15.7349C5.94796 15.786 5.97898 15.8324 6.01809 15.8715V15.8715Z" fill="#000"/>
</svg>
