<svg width="16" height="10" viewBox="0 0 16 10" fill="none" xmlns="http://www.w3.org/2000/svg">
<path d="M15.9552 4.59205C15.1621 3.22115 14.0217 2.07133 12.6572 1.26698C11.2513 0.438196 9.64085 0.00012207 8 0.00012207C6.35915 0.00012207 4.74867 0.438196 3.34274 1.26698C1.97827 2.07136 0.837859 3.22115 0.0447892 4.59205C-0.0149297 4.69534 -0.0149297 4.82263 0.0447892 4.92592C0.837859 6.29685 1.97827 7.44667 3.34274 8.25098C4.7487 9.0798 6.35915 9.51788 8 9.51788C9.64085 9.51788 11.2513 9.0798 12.6572 8.25098C14.0217 7.44664 15.1621 6.29685 15.9552 4.92592C16.0149 4.82259 16.0149 4.69534 15.9552 4.59205ZM12.3187 7.67668C11.0152 8.44504 9.52185 8.85118 7.99997 8.85118C6.47808 8.85118 4.9847 8.44504 3.68128 7.67668C2.47126 6.96337 1.45116 5.95722 0.72096 4.75895C1.45116 3.56071 2.47126 2.55456 3.68128 1.84125C4.9847 1.0729 6.47808 0.666747 7.99997 0.666747C9.52185 0.666747 11.0152 1.0729 12.3187 1.84125C13.5286 2.55456 14.5487 3.56068 15.279 4.75895C14.5487 5.95722 13.5287 6.96337 12.3187 7.67668Z" fill="#0070DC"/>
<path d="M7.99996 1.76367C6.34835 1.76367 5.00471 3.10731 5.00471 4.75893C5.00471 6.41054 6.34835 7.75422 7.99996 7.75422C9.65158 7.75422 10.9953 6.41054 10.9953 4.75893C10.9953 3.10735 9.65154 1.76367 7.99996 1.76367ZM7.99996 7.08756C6.71597 7.08756 5.67137 6.04295 5.67137 4.75893C5.67137 3.47494 6.71597 2.43033 7.99996 2.43033C9.28399 2.43033 10.3286 3.47494 10.3286 4.75893C10.3286 6.04295 9.28399 7.08756 7.99996 7.08756Z" fill="#0070DC"/>
</svg>
