<svg width="16" height="16" viewBox="0 0 16 16" fill="none" xmlns="http://www.w3.org/2000/svg">
<g clip-path="url(#clip0_3_40)">
<path d="M11.6649 0C10.9022 0.0212948 10.1593 0.248073 9.51477 0.656406C8.87021 1.06474 8.34782 1.63948 8.00272 2.32C7.65737 1.63903 7.1345 1.06399 6.48936 0.655631C5.84421 0.247268 5.10074 0.0207471 4.33749 0C3.10833 0.0900096 1.96412 0.660681 1.15275 1.58838C0.341389 2.51609 -0.0717934 3.72611 0.00271928 4.95631C0.00271928 8.15261 3.19226 11.6437 5.86733 14.0111C6.45222 14.5387 7.21194 14.8307 7.99964 14.8307C8.78734 14.8307 9.54707 14.5387 10.1319 14.0111C12.807 11.6443 15.9959 8.15261 15.9959 4.95631C16.0705 3.7266 15.6577 2.51702 14.847 1.5894C14.0363 0.661783 12.8929 0.090779 11.6643 0H11.6649ZM9.27595 12.9354C8.92618 13.2516 8.47146 13.4266 7.99995 13.4266C7.52844 13.4266 7.07372 13.2516 6.72395 12.9354C3.29995 9.90461 1.33626 6.99692 1.33626 4.95631C1.27038 4.08943 1.54774 3.23137 2.10856 2.56706C2.66939 1.90275 3.46876 1.48539 4.33441 1.40492C5.19994 1.48524 5.99928 1.90237 6.5602 2.56642C7.12111 3.23047 7.39871 4.0883 7.33318 4.95508C7.32931 5.04501 7.34369 5.13479 7.37544 5.21902C7.40719 5.30325 7.45566 5.38018 7.51793 5.44518C7.58019 5.51018 7.65497 5.56191 7.73776 5.59725C7.82055 5.63258 7.90963 5.6508 7.99964 5.6508C8.08966 5.6508 8.17874 5.63258 8.26152 5.59725C8.34431 5.56191 8.41909 5.51018 8.48136 5.44518C8.54363 5.38018 8.59209 5.30325 8.62384 5.21902C8.65559 5.13479 8.66997 5.04501 8.6661 4.95508C8.60057 4.0883 8.87817 3.23047 9.43909 2.56642C10 1.90237 10.7993 1.48524 11.6649 1.40492C12.5304 1.48524 13.3297 1.90237 13.8907 2.56642C14.4516 3.23047 14.7292 4.0883 14.6636 4.95508C14.6636 6.99569 12.6999 9.90338 9.27595 12.9317V12.9354Z" fill="#000"/>
</g>
<defs>
<clipPath id="clip0_3_40">
<rect width="16" height="16" fill="#000"/>
</clipPath>
</defs>
</svg>
